<?xml version="1.0" standalone="no"?>
<!DOCTYPE svg PUBLIC "-//W3C//DTD SVG 20010904//EN"
 "http://www.w3.org/TR/2001/REC-SVG-20010904/DTD/svg10.dtd">
<svg version="1.0" xmlns="http://www.w3.org/2000/svg"
 width="225.000000pt" height="225.000000pt" viewBox="0 0 225.000000 225.000000"
 preserveAspectRatio="xMidYMid meet">

<g transform="translate(0.000000,225.000000) scale(0.100000,-0.100000)"
fill="#000000" stroke="none">
<path d="M0 1125 l0 -1125 1125 0 1125 0 0 1125 0 1125 -1125 0 -1125 0 0
-1125z m1280 1075 c527 -76 930 -539 930 -1068 0 -300 -108 -562 -319 -773
-224 -224 -497 -330 -815 -316 -137 5 -231 24 -350 71 -149 59 -240 120 -366
246 -155 155 -229 283 -291 500 -21 74 -24 106 -24 255 0 131 4 188 19 249 25
109 82 247 141 342 58 93 222 262 310 319 130 85 277 145 418 170 86 16 257
18 347 5z"/>
<path d="M1035 2139 c-361 -26 -684 -254 -840 -592 -122 -265 -121 -586 4
-853 130 -278 379 -483 678 -560 79 -21 124 -26 233 -27 187 -1 311 27 476
108 273 135 482 411 540 715 29 151 15 376 -33 520 -44 131 -141 287 -242 390
-220 222 -493 322 -816 299z m44 -176 c7 -49 19 -133 27 -187 8 -55 13 -100
11 -102 -7 -6 -97 -21 -97 -15 0 3 -12 83 -25 176 -14 94 -25 175 -25 182 0 9
35 22 91 32 3 1 11 -38 18 -86z m400 30 c67 -49 93 -182 51 -262 -24 -48 -81
-97 -122 -105 -49 -10 -109 12 -150 55 -105 110 -50 308 95 338 40 9 93 -2
126 -26z m-544 -38 c4 -43 11 -65 20 -65 7 0 16 -7 19 -16 10 -26 7 -84 -5
-84 -11 0 -8 -45 7 -121 5 -24 2 -27 -45 -36 l-51 -10 -5 31 c-8 47 -45 318
-45 332 0 10 38 24 91 33 4 1 10 -28 14 -64z m-270 -91 c71 -33 86 -147 28
-206 l-30 -30 -22 38 c-15 25 -20 45 -16 64 6 26 -14 48 -29 33 -15 -15 -2
-49 54 -141 33 -55 60 -102 60 -105 0 -3 -18 -19 -39 -36 l-40 -32 -70 119
c-76 126 -87 172 -57 230 38 72 97 97 161 66z m1167 -70 c69 -75 88 -108 88
-155 0 -69 -32 -107 -111 -132 -8 -3 -26 -37 -39 -76 -14 -39 -27 -71 -31 -71
-3 0 -20 18 -38 40 l-33 41 20 59 c28 83 67 132 98 124 29 -7 41 15 24 45 -10
20 -17 15 -97 -79 l-86 -101 -38 37 -38 37 40 46 c22 25 75 88 117 138 42 51
78 93 79 93 2 0 22 -21 45 -46z m-1436 -343 c118 -34 139 -45 159 -87 27 -57
12 -145 -31 -185 -32 -30 -79 -29 -206 7 -119 32 -118 32 -97 107 8 29 14 37
27 33 110 -34 198 -56 209 -52 7 3 13 12 13 20 0 15 -57 36 -178 67 -49 12
-53 15 -47 37 3 13 9 37 12 53 7 36 13 36 139 0z m857 -11 c79 -25 165 -97
203 -172 l24 -48 -24 0 c-19 0 -29 9 -42 35 -24 51 -106 121 -166 141 -68 22
-177 15 -236 -15 -51 -26 -115 -89 -132 -131 -9 -21 -19 -30 -36 -30 -29 0
-29 1 -4 50 44 86 125 151 219 176 67 18 121 17 194 -6z m810 -77 c3 -10 8
-35 11 -55 7 -36 6 -37 -31 -47 -132 -35 -286 -71 -288 -69 -2 2 -8 27 -13 56
-9 51 -9 52 17 59 14 4 82 21 151 39 150 39 147 38 153 17z m-790 -174 c32
-17 37 -28 37 -81 0 -57 -25 -88 -69 -88 -40 0 -61 32 -61 90 1 49 15 75 45
83 11 2 21 5 23 6 2 0 13 -4 25 -10z m-537 -6 c-4 -4 -17 -8 -29 -8 -33 0 -31
-47 3 -56 l25 -7 -27 -1 c-25 -1 -28 -5 -28 -36 0 -33 2 -35 36 -35 21 0 33
-4 29 -10 -3 -5 -28 -10 -56 -10 l-49 0 0 85 0 85 52 0 c28 0 48 -3 44 -7z
m66 -65 c3 -67 5 -73 25 -76 26 -4 31 11 36 98 3 45 4 41 5 -22 2 -84 -7 -98
-60 -98 -39 0 -48 19 -48 97 0 66 2 73 20 73 17 0 19 -8 22 -72z m206 60 c30
-30 -3 -88 -50 -88 -14 0 -18 -8 -18 -35 0 -28 -4 -35 -20 -35 -18 0 -20 7
-20 85 l0 85 48 0 c26 0 53 -5 60 -12z m72 -23 c0 -24 5 -35 15 -35 10 0 15
11 15 35 0 31 3 35 25 35 25 0 25 -1 25 -85 0 -84 0 -85 -25 -85 -23 0 -25 4
-25 45 0 33 -4 45 -15 45 -11 0 -15 -12 -15 -45 0 -41 -2 -45 -25 -45 -25 0
-25 1 -25 85 0 84 0 85 25 85 22 0 25 -4 25 -35z m358 23 c15 -15 16 -55 1
-64 -8 -4 -8 -9 0 -17 6 -6 11 -26 11 -44 0 -26 -4 -33 -20 -33 -11 0 -21 7
-21 15 -1 8 -3 20 -4 25 -1 6 -3 17 -4 25 -3 34 -21 12 -21 -25 0 -36 -2 -40
-25 -40 -25 0 -25 1 -25 85 l0 85 48 0 c26 0 53 -5 60 -12z m82 -73 c0 -78 -2
-85 -20 -85 -17 0 -20 7 -21 48 0 26 -2 61 -3 77 -3 38 0 45 25 45 17 0 19 -8
19 -85z m114 18 c9 -38 19 -76 22 -85 4 -14 0 -18 -19 -18 -16 0 -26 7 -30 20
-3 12 -14 20 -25 20 -12 0 -23 -9 -27 -20 -3 -11 -11 -20 -17 -20 -5 0 -7 6
-5 13 3 6 13 45 23 85 15 62 21 72 40 72 18 0 24 -10 38 -67z m261 -43 c55
-17 110 -38 123 -46 67 -44 63 -187 -7 -241 -27 -21 -79 -15 -199 23 -83 26
-112 39 -108 49 2 7 8 30 12 49 3 20 9 38 13 41 4 2 50 -9 102 -26 52 -16 103
-28 114 -27 31 4 24 30 -12 45 -29 11 -33 11 -33 -2 0 -18 -2 -18 -51 -3 -26
7 -39 17 -39 29 0 11 -10 20 -30 24 -39 8 -41 14 -29 61 16 61 17 64 31 59 7
-3 58 -18 113 -35z m-1345 -96 c21 -112 -15 -151 -183 -196 -66 -17 -97 -4
-124 52 -12 25 -24 64 -28 87 l-7 42 39 8 c56 11 55 11 67 -31 6 -22 17 -41
25 -44 10 -3 12 6 6 46 -6 49 -6 50 26 61 17 6 33 11 34 11 2 0 8 -20 14 -45
7 -30 17 -45 27 -45 12 0 15 6 10 26 -21 82 -21 81 25 96 52 18 53 16 69 -68z
m400 -4 c0 -16 -4 -30 -10 -30 -11 0 -14 43 -3 53 11 12 13 8 13 -23z m130 1
c0 -29 0 -29 -60 -29 -50 1 -60 4 -58 17 3 12 15 16 52 16 30 0 51 5 54 13 7
21 12 13 12 -17z m180 -13 c0 -20 -20 -25 -21 -5 0 10 -2 10 -6 0 -2 -7 -13
-13 -24 -13 -14 0 -19 7 -19 25 0 31 17 33 23 3 4 -20 4 -19 6 5 1 25 3 26 21
15 11 -7 20 -21 20 -30z m75 12 c11 18 35 11 35 -10 0 -16 -6 -20 -30 -18 -16
1 -30 7 -30 13 0 5 -4 4 -9 -4 -11 -17 -21 -1 -16 25 2 10 4 21 4 23 1 2 10
-6 20 -18 12 -13 22 -18 26 -11z m-525 -7 c0 -22 -2 -25 -10 -13 -6 10 -10 11
-10 3 0 -7 -6 -13 -14 -13 -8 0 -17 6 -20 13 -5 10 -7 10 -12 0 -10 -21 -54
-16 -54 6 0 15 7 19 38 19 20 0 40 -5 44 -11 6 -9 8 -8 8 1 0 7 5 10 10 7 6
-3 10 -1 10 4 0 6 2 11 5 11 3 0 5 -12 5 -27z m367 -10 c-3 -10 -5 -4 -5 12 0
17 2 24 5 18 2 -7 2 -21 0 -30z m313 29 c0 -5 18 -7 40 -5 35 3 40 0 40 -18 0
-15 -5 -20 -22 -17 -13 2 -26 8 -30 13 -5 6 -8 5 -8 -3 0 -7 -12 -12 -27 -12
-16 0 -45 -1 -65 -3 -34 -2 -38 0 -38 20 0 20 4 22 45 19 25 -1 45 1 45 6 0 4
5 8 10 8 6 0 10 -4 10 -8z m-813 -22 c1 -11 -2 -20 -8 -20 -5 0 -9 9 -9 20 0
11 4 20 8 20 4 0 8 -9 9 -20z m226 -2 c6 -21 -24 -40 -31 -20 -2 7 -8 10 -13
6 -5 -3 -9 0 -9 7 0 8 -4 8 -15 -1 -13 -10 -15 -9 -15 8 0 18 6 21 39 20 30 0
40 -5 44 -20z m228 13 c7 12 9 11 9 -1 0 -13 1 -13 10 0 8 12 10 11 10 -6 0
-16 -6 -21 -25 -21 -19 0 -25 5 -24 21 0 13 3 16 6 7 5 -11 7 -11 14 0z m466
-11 c1 -11 -2 -20 -8 -20 -5 0 -9 9 -9 20 0 11 4 20 8 20 4 0 8 -9 9 -20z m30
0 c1 -11 -2 -20 -8 -20 -5 0 -9 9 -9 20 0 11 4 20 8 20 4 0 8 -9 9 -20z m-682
-98 c120 -110 296 -108 413 5 33 31 53 43 71 41 23 -3 22 -5 -23 -55 -30 -34
-71 -64 -113 -85 -56 -27 -75 -32 -141 -31 -106 0 -175 28 -246 99 -31 30 -56
59 -56 64 0 25 47 6 95 -38z m145 33 c41 -3 111 -1 155 4 44 5 82 7 84 5 7 -7
-52 -65 -84 -82 -17 -9 -55 -16 -90 -16 -68 0 -122 23 -170 74 l-30 31 30 -5
c17 -2 64 -7 105 -11z m-572 -161 c35 -24 28 -84 -12 -103 -25 -12 -31 -11
-55 6 -37 28 -39 65 -5 92 32 25 42 26 72 5z m1298 -30 c19 -28 11 -59 -21
-80 -47 -31 -105 18 -85 70 18 48 78 54 106 10z m-179 -149 c13 -38 28 -74 33
-79 15 -15 12 -36 -4 -36 -8 0 -24 26 -38 60 l-23 61 -7 -47 c-9 -59 -23 -69
-66 -44 l-32 19 6 -27 c4 -15 11 -37 15 -50 12 -31 11 -32 -5 -32 -9 0 -19 25
-30 72 -9 39 -23 80 -32 89 -9 10 -14 23 -12 30 2 7 28 -9 62 -40 40 -36 61
-50 68 -43 6 6 12 39 13 74 4 76 2 71 17 66 6 -2 22 -35 35 -73z m-899 29 c12
-8 22 -23 22 -32 0 -13 -4 -11 -16 6 -10 15 -24 22 -37 20 -20 -3 -22 -8 -19
-50 4 -64 -10 -88 -52 -88 -38 0 -82 39 -73 64 10 24 27 19 27 -8 0 -31 23
-50 51 -41 19 6 21 12 16 55 -9 77 28 111 81 74z m139 -65 c26 1 29 -9 37
-113 3 -38 10 -74 15 -79 10 -10 61 86 61 115 0 10 7 18 15 18 18 0 18 -1 5
-36 l-10 -26 35 31 c26 22 46 31 73 31 53 1 159 25 178 41 14 12 16 11 13 -6
-3 -12 -17 -24 -37 -30 l-32 -9 0 -83 c0 -70 -3 -83 -16 -83 -14 0 -16 11 -12
81 l5 81 -26 -7 c-14 -3 -35 -6 -46 -6 -62 2 -72 -1 -92 -24 -26 -30 -31 -86
-9 -105 21 -17 56 -9 74 18 14 21 13 22 -17 22 -19 0 -30 4 -26 10 3 6 24 10
45 10 37 0 38 -1 30 -27 -21 -68 -33 -93 -46 -93 -11 0 -12 4 -4 19 9 18 7 19
-24 14 -41 -6 -76 23 -76 64 0 25 -1 24 -31 -16 -45 -62 -54 -53 -75 74 l-7
40 -26 -57 c-14 -32 -32 -58 -38 -58 -21 0 -15 17 27 87 35 59 52 98 34 80 -4
-3 -14 -2 -23 3 -13 6 -27 -4 -66 -47 -44 -50 -47 -57 -32 -68 36 -26 14 -32
-34 -9 -49 24 -57 38 -21 39 9 0 37 22 61 48 34 36 41 51 33 59 -23 23 -12 28
26 12 20 -9 47 -16 59 -15z m530 -32 c7 -23 23 -59 37 -80 30 -44 31 -47 11
-47 -8 0 -22 11 -30 24 -15 23 -18 24 -48 11 -26 -11 -32 -19 -33 -46 0 -18
-5 -34 -12 -37 -8 -2 -12 9 -12 32 0 29 -3 34 -17 30 -14 -5 -14 -2 3 13 12
10 30 41 39 68 32 88 46 95 62 32z"/>
<path d="M1331 1884 c-65 -82 22 -191 94 -119 49 48 18 145 -45 145 -19 0 -36
-9 -49 -26z"/>
<path d="M1225 1138 c-6 -46 6 -104 21 -101 24 5 23 143 -1 143 -9 0 -16 -17
-20 -42z"/>
<path d="M946 1173 c-13 -13 -6 -63 9 -63 10 0 15 10 15 29 0 30 -12 46 -24
34z"/>
<path d="M1380 1149 c0 -20 4 -29 13 -27 18 7 20 45 3 51 -12 5 -16 -1 -16
-24z"/>
<path d="M1576 1125 c-10 -28 -7 -45 9 -45 12 0 14 7 9 28 -9 35 -10 36 -18
17z"/>
<path d="M1362 462 c-16 -53 -16 -53 13 -40 19 9 24 16 19 32 -14 46 -20 47
-32 8z"/>
</g>
</svg>
